# Wavefront OBJ file
# Creator: Ultimate Unwrap3D Pro (x64) v3.50.55
# Website: http://www.unwrap3d.com
# Time: Fri May 29 16:10:27 2020
# num_vertices: 66
# num_vertex_normals: 66
# num_uvs: 192
# num_faces: 64
# num_groups: 1

mtllib sky.mtl

v 0.000000 10.000000 5.000000
v 0.975452 10.000000 4.903927
v 0.000000 0.000000 5.000000
v 0.975452 0.000000 4.903927
v 1.913417 10.000000 4.619398
v 1.913417 0.000000 4.619398
v 2.777851 10.000000 4.157349
v 2.777851 0.000000 4.157349
v 3.535534 10.000000 3.535534
v 3.535534 0.000000 3.535534
v 4.157348 10.000000 2.777851
v 4.157348 0.000000 2.777851
v 4.619398 10.000000 1.913417
v 4.619398 0.000000 1.913417
v 4.903926 10.000000 0.975451
v 4.903926 0.000000 0.975451
v 5.000000 10.000000 0.000000
v 5.000000 0.000000 0.000000
v 4.903926 10.000000 -0.975451
v 4.903926 0.000000 -0.975451
v 4.619398 10.000000 -1.913418
v 4.619398 0.000000 -1.913418
v 4.157348 10.000000 -2.777852
v 4.157348 0.000000 -2.777852
v 3.535534 10.000000 -3.535534
v 3.535534 0.000000 -3.535534
v 2.777851 10.000000 -4.157348
v 2.777851 0.000000 -4.157348
v 1.913416 10.000000 -4.619398
v 1.913416 0.000000 -4.619398
v 0.975452 10.000000 -4.903926
v 0.975452 0.000000 -4.903926
v 0.000000 10.000000 -5.000000
v 0.000000 0.000000 -5.000000
v 0.000000 10.000000 -5.000000
v -0.975452 10.000000 -4.903926
v 0.000000 0.000000 -5.000000
v -0.975452 0.000000 -4.903926
v -1.913417 10.000000 -4.619398
v -1.913417 0.000000 -4.619398
v -2.777852 10.000000 -4.157348
v -2.777852 0.000000 -4.157348
v -3.535534 10.000000 -3.535533
v -3.535534 0.000000 -3.535533
v -4.157349 10.000000 -2.777850
v -4.157349 0.000000 -2.777850
v -4.619399 10.000000 -1.913416
v -4.619399 0.000000 -1.913416
v -4.903926 10.000000 -0.975452
v -4.903926 0.000000 -0.975452
v -5.000000 10.000000 0.000000
v -5.000000 0.000000 0.000000
v -4.903926 10.000000 0.975452
v -4.903926 0.000000 0.975452
v -4.619397 10.000000 1.913418
v -4.619397 0.000000 1.913418
v -4.157347 10.000000 2.777852
v -4.157347 0.000000 2.777852
v -3.535533 10.000000 3.535535
v -3.535533 0.000000 3.535535
v -2.777852 10.000000 4.157349
v -2.777852 0.000000 4.157349
v -1.913417 10.000000 4.619398
v -1.913417 0.000000 4.619398
v -0.975451 10.000000 4.903927
v -0.975451 0.000000 4.903927
# num_vertices: 66

vn 0.032813 0.000000 -0.999462
vn -0.162803 0.000000 -0.986659
vn -0.032813 0.000000 -0.999462
vn -0.227168 0.000000 -0.973856
vn -0.352162 0.000000 -0.935939
vn -0.412792 0.000000 -0.910825
vn -0.527988 0.000000 -0.849252
vn -0.582554 0.000000 -0.812792
vn -0.683524 0.000000 -0.729928
vn -0.729928 0.000000 -0.683524
vn -0.812792 0.000000 -0.582554
vn -0.849252 0.000000 -0.527988
vn -0.910825 0.000000 -0.412792
vn -0.935939 0.000000 -0.352162
vn -0.973856 0.000000 -0.227167
vn -0.986659 0.000000 -0.162803
vn -0.999462 0.000000 -0.032813
vn -0.999462 0.000000 0.032813
vn -0.986659 0.000000 0.162803
vn -0.973856 0.000000 0.227167
vn -0.935939 0.000000 0.352162
vn -0.910825 0.000000 0.412792
vn -0.849251 0.000000 0.527989
vn -0.812792 0.000000 0.582554
vn -0.729928 0.000000 0.683524
vn -0.683524 0.000000 0.729928
vn -0.582554 0.000000 0.812792
vn -0.527988 0.000000 0.849252
vn -0.412792 0.000000 0.910825
vn -0.352162 0.000000 0.935939
vn -0.227167 0.000000 0.973856
vn -0.162803 0.000000 0.986659
vn -0.098018 0.000000 0.995185
vn -0.098018 0.000000 0.995185
vn 0.098018 0.000000 0.995185
vn 0.162803 0.000000 0.986659
vn 0.098018 0.000000 0.995185
vn 0.227167 0.000000 0.973856
vn 0.352162 0.000000 0.935939
vn 0.412792 0.000000 0.910825
vn 0.527989 0.000000 0.849252
vn 0.582555 0.000000 0.812792
vn 0.683524 0.000000 0.729928
vn 0.729928 0.000000 0.683524
vn 0.812792 0.000000 0.582554
vn 0.849251 0.000000 0.527989
vn 0.910825 0.000000 0.412792
vn 0.935939 0.000000 0.352162
vn 0.973856 0.000000 0.227167
vn 0.986659 0.000000 0.162803
vn 0.999462 0.000000 0.032813
vn 0.999462 0.000000 -0.032813
vn 0.986659 0.000000 -0.162803
vn 0.973856 0.000000 -0.227168
vn 0.935939 0.000000 -0.352162
vn 0.910825 0.000000 -0.412793
vn 0.849252 0.000000 -0.527988
vn 0.812792 0.000000 -0.582554
vn 0.729928 0.000000 -0.683524
vn 0.683524 0.000000 -0.729928
vn 0.582554 0.000000 -0.812792
vn 0.527988 0.000000 -0.849252
vn 0.412792 0.000000 -0.910825
vn 0.352162 0.000000 -0.935939
vn 0.227167 0.000000 -0.973856
vn 0.162803 0.000000 -0.986659
# num_vertex_normals: 66

vt 0.500000 1.000000
vt 0.531250 1.000000
vt 0.500000 0.000000
vt 0.531250 1.000000
vt 0.531250 0.000000
vt 0.500000 0.000000
vt 0.531250 1.000000
vt 0.562500 1.000000
vt 0.531250 0.000000
vt 0.562500 1.000000
vt 0.562500 0.000000
vt 0.531250 0.000000
vt 0.562500 1.000000
vt 0.593750 1.000000
vt 0.562500 0.000000
vt 0.593750 1.000000
vt 0.593750 0.000000
vt 0.562500 0.000000
vt 0.593750 1.000000
vt 0.625000 1.000000
vt 0.593750 0.000000
vt 0.625000 1.000000
vt 0.625000 0.000000
vt 0.593750 0.000000
vt 0.625000 1.000000
vt 0.656250 1.000000
vt 0.625000 0.000000
vt 0.656250 1.000000
vt 0.656250 0.000000
vt 0.625000 0.000000
vt 0.656250 1.000000
vt 0.687500 1.000000
vt 0.656250 0.000000
vt 0.687500 1.000000
vt 0.687500 0.000000
vt 0.656250 0.000000
vt 0.687500 1.000000
vt 0.718750 1.000000
vt 0.687500 0.000000
vt 0.718750 1.000000
vt 0.718750 0.000000
vt 0.687500 0.000000
vt 0.718750 1.000000
vt 0.750000 1.000000
vt 0.718750 0.000000
vt 0.750000 1.000000
vt 0.750000 0.000000
vt 0.718750 0.000000
vt 0.750000 1.000000
vt 0.781250 1.000000
vt 0.750000 0.000000
vt 0.781250 1.000000
vt 0.781250 0.000000
vt 0.750000 0.000000
vt 0.781250 1.000000
vt 0.812500 1.000000
vt 0.781250 0.000000
vt 0.812500 1.000000
vt 0.812500 0.000000
vt 0.781250 0.000000
vt 0.812500 1.000000
vt 0.843750 1.000000
vt 0.812500 0.000000
vt 0.843750 1.000000
vt 0.843750 0.000000
vt 0.812500 0.000000
vt 0.843750 1.000000
vt 0.875000 1.000000
vt 0.843750 0.000000
vt 0.875000 1.000000
vt 0.875000 0.000000
vt 0.843750 0.000000
vt 0.875000 1.000000
vt 0.906250 1.000000
vt 0.875000 0.000000
vt 0.906250 1.000000
vt 0.906250 0.000000
vt 0.875000 0.000000
vt 0.906250 1.000000
vt 0.937500 1.000000
vt 0.906250 0.000000
vt 0.937500 1.000000
vt 0.937500 0.000000
vt 0.906250 0.000000
vt 0.937500 1.000000
vt 0.968750 1.000000
vt 0.937500 0.000000
vt 0.968750 1.000000
vt 0.968750 0.000000
vt 0.937500 0.000000
vt 0.968750 1.000000
vt 1.000000 1.000000
vt 0.968750 0.000000
vt 1.000000 1.000000
vt 1.000000 0.000000
vt 0.968750 0.000000
vt 0.000000 1.000000
vt 0.031250 1.000000
vt 0.000000 0.000000
vt 0.031250 1.000000
vt 0.031250 0.000000
vt 0.000000 0.000000
vt 0.031250 1.000000
vt 0.062500 1.000000
vt 0.031250 0.000000
vt 0.062500 1.000000
vt 0.062500 0.000000
vt 0.031250 0.000000
vt 0.062500 1.000000
vt 0.093750 1.000000
vt 0.062500 0.000000
vt 0.093750 1.000000
vt 0.093750 0.000000
vt 0.062500 0.000000
vt 0.093750 1.000000
vt 0.125000 1.000000
vt 0.093750 0.000000
vt 0.125000 1.000000
vt 0.125000 0.000000
vt 0.093750 0.000000
vt 0.125000 1.000000
vt 0.156250 1.000000
vt 0.125000 0.000000
vt 0.156250 1.000000
vt 0.156250 0.000000
vt 0.125000 0.000000
vt 0.156250 1.000000
vt 0.187500 1.000000
vt 0.156250 0.000000
vt 0.187500 1.000000
vt 0.187500 0.000000
vt 0.156250 0.000000
vt 0.187500 1.000000
vt 0.218750 1.000000
vt 0.187500 0.000000
vt 0.218750 1.000000
vt 0.218750 0.000000
vt 0.187500 0.000000
vt 0.218750 1.000000
vt 0.250000 1.000000
vt 0.218750 0.000000
vt 0.250000 1.000000
vt 0.250000 0.000000
vt 0.218750 0.000000
vt 0.250000 1.000000
vt 0.281250 1.000000
vt 0.250000 0.000000
vt 0.281250 1.000000
vt 0.281250 0.000000
vt 0.250000 0.000000
vt 0.281250 1.000000
vt 0.312500 1.000000
vt 0.281250 0.000000
vt 0.312500 1.000000
vt 0.312500 0.000000
vt 0.281250 0.000000
vt 0.312500 1.000000
vt 0.343750 1.000000
vt 0.312500 0.000000
vt 0.343750 1.000000
vt 0.343750 0.000000
vt 0.312500 0.000000
vt 0.343750 1.000000
vt 0.375000 1.000000
vt 0.343750 0.000000
vt 0.375000 1.000000
vt 0.375000 0.000000
vt 0.343750 0.000000
vt 0.375000 1.000000
vt 0.406250 1.000000
vt 0.375000 0.000000
vt 0.406250 1.000000
vt 0.406250 0.000000
vt 0.375000 0.000000
vt 0.406250 1.000000
vt 0.437500 1.000000
vt 0.406250 0.000000
vt 0.437500 1.000000
vt 0.437500 0.000000
vt 0.406250 0.000000
vt 0.437500 1.000000
vt 0.468750 1.000000
vt 0.437500 0.000000
vt 0.468750 1.000000
vt 0.468750 0.000000
vt 0.437500 0.000000
vt 0.468750 1.000000
vt 0.500000 1.000000
vt 0.468750 0.000000
vt 0.500000 1.000000
vt 0.500000 0.000000
vt 0.468750 0.000000
# num_uvs: 192

g Untitled

usemtl Untitled
f 1/1/1 2/2/2 3/3/3 
f 2/4/2 4/5/4 3/6/3 
f 2/7/2 5/8/5 4/9/4 
f 5/10/5 6/11/6 4/12/4 
f 5/13/5 7/14/7 6/15/6 
f 7/16/7 8/17/8 6/18/6 
f 7/19/7 9/20/9 8/21/8 
f 9/22/9 10/23/10 8/24/8 
f 9/25/9 11/26/11 10/27/10 
f 11/28/11 12/29/12 10/30/10 
f 11/31/11 13/32/13 12/33/12 
f 13/34/13 14/35/14 12/36/12 
f 13/37/13 15/38/15 14/39/14 
f 15/40/15 16/41/16 14/42/14 
f 15/43/15 17/44/17 16/45/16 
f 17/46/17 18/47/18 16/48/16 
f 17/49/17 19/50/19 18/51/18 
f 19/52/19 20/53/20 18/54/18 
f 19/55/19 21/56/21 20/57/20 
f 21/58/21 22/59/22 20/60/20 
f 21/61/21 23/62/23 22/63/22 
f 23/64/23 24/65/24 22/66/22 
f 23/67/23 25/68/25 24/69/24 
f 25/70/25 26/71/26 24/72/24 
f 25/73/25 27/74/27 26/75/26 
f 27/76/27 28/77/28 26/78/26 
f 27/79/27 29/80/29 28/81/28 
f 29/82/29 30/83/30 28/84/28 
f 29/85/29 31/86/31 30/87/30 
f 31/88/31 32/89/32 30/90/30 
f 31/91/31 33/92/33 32/93/32 
f 33/94/33 34/95/34 32/96/32 
f 35/97/35 36/98/36 37/99/37 
f 36/100/36 38/101/38 37/102/37 
f 36/103/36 39/104/39 38/105/38 
f 39/106/39 40/107/40 38/108/38 
f 39/109/39 41/110/41 40/111/40 
f 41/112/41 42/113/42 40/114/40 
f 41/115/41 43/116/43 42/117/42 
f 43/118/43 44/119/44 42/120/42 
f 43/121/43 45/122/45 44/123/44 
f 45/124/45 46/125/46 44/126/44 
f 45/127/45 47/128/47 46/129/46 
f 47/130/47 48/131/48 46/132/46 
f 47/133/47 49/134/49 48/135/48 
f 49/136/49 50/137/50 48/138/48 
f 49/139/49 51/140/51 50/141/50 
f 51/142/51 52/143/52 50/144/50 
f 51/145/51 53/146/53 52/147/52 
f 53/148/53 54/149/54 52/150/52 
f 53/151/53 55/152/55 54/153/54 
f 55/154/55 56/155/56 54/156/54 
f 55/157/55 57/158/57 56/159/56 
f 57/160/57 58/161/58 56/162/56 
f 57/163/57 59/164/59 58/165/58 
f 59/166/59 60/167/60 58/168/58 
f 59/169/59 61/170/61 60/171/60 
f 61/172/61 62/173/62 60/174/60 
f 61/175/61 63/176/63 62/177/62 
f 63/178/63 64/179/64 62/180/62 
f 63/181/63 65/182/65 64/183/64 
f 65/184/65 66/185/66 64/186/64 
f 65/187/65 1/188/1 66/189/66 
f 1/190/1 3/191/3 66/192/66 
# num_faces: 64

